<?xml version="1.0" standalone="no"?>
<!DOCTYPE svg PUBLIC "-//W3C//DTD SVG 20010904//EN"
 "http://www.w3.org/TR/2001/REC-SVG-20010904/DTD/svg10.dtd">
<svg version="1.0" xmlns="http://www.w3.org/2000/svg"
 width="700.000000pt" height="700.000000pt" viewBox="0 0 700.000000 700.000000"
 preserveAspectRatio="xMidYMid meet">
<metadata>
Created by potrace 1.14, written by Peter Selinger 2001-2017
</metadata>
<g transform="translate(0.000000,700.000000) scale(0.100000,-0.100000)"
fill="#000000" stroke="none">
<path d="M2859 4540 c-156 -25 -282 -91 -399 -209 -98 -99 -157 -202 -190
-335 -24 -95 -26 -252 -6 -341 8 -33 13 -61 12 -63 -2 -1 -254 0 -560 4 l-556
7 0 423 c0 408 -1 424 -19 434 -31 16 -253 13 -277 -4 -19 -14 -19 -37 -22
-932 -2 -811 -1 -920 13 -941 15 -22 20 -23 149 -23 99 0 136 3 145 13 7 10
12 142 13 427 l3 412 643 2 644 1 24 28 c30 35 30 53 -2 145 -14 42 -31 115
-37 162 -38 301 173 576 468 609 171 20 352 -47 474 -173 28 -29 43 -36 72
-36 32 0 48 9 106 61 138 122 308 177 465 151 233 -40 416 -230 453 -470 4
-24 17 -55 30 -70 19 -22 32 -27 70 -27 37 0 51 5 66 24 24 30 24 68 -1 167
-55 217 -196 396 -384 488 -143 70 -306 92 -456 62 -92 -19 -236 -83 -306
-136 l-42 -32 -48 38 c-62 47 -174 99 -256 119 -81 19 -217 26 -289 15z"/>
<path d="M472 4288 c-9 -9 -12 -195 -12 -774 0 -680 2 -764 16 -778 12 -13 40
-16 143 -16 111 0 130 2 144 18 16 17 17 85 17 771 0 499 -3 759 -10 772 -10
17 -22 19 -148 19 -94 0 -142 -4 -150 -12z"/>
<path d="M80 4101 c-15 -30 -14 -1163 2 -1179 8 -8 56 -12 148 -12 92 0 140 4
148 12 9 9 12 154 12 589 0 512 -2 579 -16 593 -12 13 -41 16 -149 16 -123 0
-135 -2 -145 -19z"/>
</g>
</svg>
