<svg width="100" height="30" viewBox="0 0 100 30" fill="none" xmlns="http://www.w3.org/2000/svg">
<rect width="100" height="30" fill="white"/>
<path d="M66.5867 9.56728C66.1533 5.54333 63.6439 2.14533 60.0166 0.714596C56.3894 -0.71614 52.2603 0.0439387 49.3403 2.61479C47.5837 1.07228 45.3024 0.155715 42.9299 0.0439386C40.1011 -0.0901929 37.432 0.871082 35.4016 2.77128C33.5082 4.53734 32.3447 6.97407 32.1166 9.61199C32.0025 10.9309 32.1394 12.2499 32.5729 13.6583L14.8701 13.6136C14.3911 13.6136 14.0032 13.8371 13.7751 14.2172C13.5242 14.6419 13.5242 15.1784 13.7751 15.6032C14.0032 15.9832 14.3911 16.2068 14.8701 16.2068L34.4435 16.2515C34.8998 16.2515 35.2648 16.0503 35.4929 15.715C35.7438 15.3349 35.7895 14.7984 35.5841 14.3513C34.0557 10.8862 34.626 7.21997 37.067 4.80561C38.5726 3.33016 40.5573 2.57008 42.6333 2.63715C44.8233 2.70421 46.9221 3.7102 48.3821 5.36449C48.6102 5.61039 48.9524 5.76688 49.3403 5.76688C49.7281 5.76688 50.0703 5.63275 50.2984 5.36449C52.5569 2.81599 55.956 1.92178 59.0129 3.08425C61.7048 4.11259 63.6439 6.68345 63.9632 9.63434C64.0545 10.4838 64.8301 10.9086 65.5373 10.8415C66.2217 10.7521 66.6552 10.2379 66.5867 9.56728Z" fill="#2A2A2A"/>
<path d="M10.399 26.1549H7.25079C6.86297 26.1549 6.56641 25.8419 6.56641 25.4842V4.20198C6.56641 3.82194 6.88579 3.53133 7.25079 3.53133H10.4218C10.8096 3.53133 11.1061 3.8443 11.1061 4.20198V25.4842C11.0833 25.8419 10.7868 26.1549 10.399 26.1549Z" fill="#2A2A2A"/>
<path d="M4.87817 23.4946H1.68438C1.31938 23.4946 1 23.2039 1 22.8239V6.79518C1 6.4375 1.29657 6.12453 1.68438 6.12453H4.87817C5.24318 6.12453 5.56256 6.41515 5.56256 6.79518V22.8239C5.56256 23.2039 5.26599 23.4946 4.87817 23.4946Z" fill="#2A2A2A"/>
<path d="M15.9198 28.4575H12.7716C12.3838 28.4575 12.0645 28.1445 12.0645 27.7645V1.87707C12.0645 1.49703 12.3838 1.18405 12.7716 1.18405H15.9198C16.3076 1.18405 16.627 1.49703 16.627 1.87707V27.7868C16.627 28.1668 16.3076 28.4575 15.9198 28.4575Z" fill="#2A2A2A"/>
<path d="M83.9702 14.2172C83.7421 13.8372 83.3543 13.6136 82.8752 13.6136L64.3284 13.6583C63.9178 13.6583 63.3703 13.8819 63.1649 14.329C61.0662 18.8895 56.823 22.3098 53.7889 24.5006C52.4429 25.4619 51.097 26.3561 49.751 27.1609L49.6141 27.228C49.4088 27.3398 49.4088 27.3398 49.2263 27.2727C48.7016 27.0715 48.1769 26.7138 47.6751 26.3785C47.4697 26.2443 47.2644 26.1102 47.0819 25.9761C45.7132 25.1042 44.5269 24.2771 43.4319 23.4499C41.2647 21.7733 39.4853 20.0966 37.9796 18.2635C37.5462 17.727 36.8618 17.6599 36.3143 18.0847C35.7668 18.5094 35.5158 19.3589 36.0633 20.0296C37.5234 21.7956 39.2571 23.4723 41.3787 25.1266C42.6106 26.0879 43.9109 27.0268 45.2569 27.8986C45.9413 28.3457 46.6713 28.7929 47.4241 29.24L47.5838 29.3294C48.1085 29.6424 48.7016 30 49.4088 30C49.5457 30 49.7054 29.9777 49.8651 29.9553C50.4354 29.8212 50.9829 29.4635 51.4848 29.1505C51.6217 29.0611 51.7357 28.9717 51.8726 28.9046C52.6711 28.4128 53.4695 27.8763 54.268 27.3398C56.5036 25.7972 58.3971 24.2771 60.0852 22.6899C62.3893 20.499 64.0547 18.3753 65.1725 16.2515L82.8752 16.2068C83.3543 16.2068 83.7421 15.9833 83.9702 15.6032C84.2212 15.1785 84.2212 14.642 83.9702 14.2172Z" fill="#FBF138"/>
<path d="M88.6014 26.1549H91.7724C92.1602 26.1549 92.4567 25.8419 92.4567 25.4842V4.20198C92.4567 3.82194 92.1374 3.53133 91.7724 3.53133H88.6014C88.2136 3.53133 87.917 3.8443 87.917 4.20198V25.4842C87.917 25.8419 88.2136 26.1549 88.6014 26.1549Z" fill="#FBF138"/>
<path d="M94.1219 23.4946H97.3157C97.6807 23.4946 98 23.204 98 22.824V6.79526C98 6.43758 97.7035 6.1246 97.3157 6.1246H94.1219C93.7569 6.1246 93.4375 6.41522 93.4375 6.79526V22.824C93.4375 23.204 93.7341 23.4946 94.1219 23.4946Z" fill="#FBF138"/>
<path d="M83.0807 28.4575H86.2289C86.6167 28.4575 86.9361 28.1445 86.9361 27.7645V1.87707C86.9361 1.49703 86.6167 1.18405 86.2289 1.18405H83.0807C82.6929 1.18405 82.3735 1.49703 82.3735 1.87707V27.7868C82.3735 28.1668 82.6929 28.4575 83.0807 28.4575Z" fill="#FBF138"/>
</svg>
